<svg width="40" height="40" viewBox="0 0 40 40" fill="none" xmlns="http://www.w3.org/2000/svg">
<path d="M36.6666 13.6036V13.7253C36.6666 15.1586 36.6666 15.8769 36.3216 16.4636C35.9766 17.0503 35.3483 17.3986 34.0949 18.0969L32.7733 18.8303C33.6833 15.7503 33.9883 12.4403 34.0999 9.61027L34.1166 9.24194L34.1199 9.15527C35.2049 9.53194 35.8149 9.81361 36.1949 10.3403C36.6666 10.9953 36.6666 11.8653 36.6666 13.6036ZM3.33325 13.6036V13.7253C3.33325 15.1586 3.33325 15.8769 3.67825 16.4636C4.02325 17.0503 4.65159 17.3986 5.90492 18.0969L7.22825 18.8303C6.31659 15.7503 6.01159 12.4403 5.89992 9.61027L5.88325 9.24194L5.88159 9.15527C4.79492 9.53194 4.18492 9.81361 3.80492 10.3403C3.33325 10.9953 3.33325 11.8669 3.33325 13.6036Z" fill="white"/>
<path fill-rule="evenodd" clip-rule="evenodd" d="M27.295 3.91172C24.8836 3.51671 22.4435 3.32327 20 3.33339C17.0283 3.33339 14.5783 3.59505 12.705 3.91172C10.8066 4.23172 9.8583 4.39172 9.06497 5.36839C8.2733 6.34505 8.31497 7.40005 8.3983 9.51005C8.68664 16.7567 10.25 25.8101 18.75 26.6101V32.5001H16.3666C15.9815 32.5003 15.6083 32.6339 15.3105 32.8782C15.0128 33.1225 14.8088 33.4624 14.7333 33.8401L14.4166 35.4167H9.99997C9.66845 35.4167 9.35051 35.5484 9.11609 35.7828C8.88166 36.0173 8.74997 36.3352 8.74997 36.6667C8.74997 36.9982 8.88166 37.3162 9.11609 37.5506C9.35051 37.785 9.66845 37.9167 9.99997 37.9167H30C30.3315 37.9167 30.6494 37.785 30.8839 37.5506C31.1183 37.3162 31.25 36.9982 31.25 36.6667C31.25 36.3352 31.1183 36.0173 30.8839 35.7828C30.6494 35.5484 30.3315 35.4167 30 35.4167H25.5833L25.2666 33.8401C25.1911 33.4624 24.9872 33.1225 24.6894 32.8782C24.3916 32.6339 24.0185 32.5003 23.6333 32.5001H21.25V26.6101C29.75 25.8101 31.315 16.7584 31.6016 9.51005C31.685 7.40005 31.7283 6.34339 30.935 5.36839C30.1416 4.39172 29.1933 4.23172 27.295 3.91172Z" fill="white"/>
</svg>
