<svg width="40" height="40" viewBox="0 0 40 40" fill="none" xmlns="http://www.w3.org/2000/svg">
<path d="M20 13.75C21.3261 13.75 22.5979 13.2232 23.5355 12.2855C24.4732 11.3479 25 10.0761 25 8.75C25 7.42392 24.4732 6.15215 23.5355 5.21447C22.5979 4.27678 21.3261 3.75 20 3.75C18.6739 3.75 17.4021 4.27678 16.4645 5.21447C15.5268 6.15215 15 7.42392 15 8.75C15 10.0761 15.5268 11.3479 16.4645 12.2855C17.4021 13.2232 18.6739 13.75 20 13.75ZM12.5 9.375C12.5 9.94953 12.3868 10.5184 12.167 11.0492C11.9471 11.58 11.6248 12.0623 11.2186 12.4686C10.8123 12.8748 10.33 13.1971 9.79924 13.417C9.26844 13.6368 8.69953 13.75 8.125 13.75C7.55047 13.75 6.98156 13.6368 6.45076 13.417C5.91996 13.1971 5.43766 12.8748 5.03141 12.4686C4.62515 12.0623 4.30289 11.58 4.08303 11.0492C3.86316 10.5184 3.75 9.94953 3.75 9.375C3.75 8.21468 4.21094 7.10188 5.03141 6.28141C5.85188 5.46094 6.96468 5 8.125 5C9.28532 5 10.3981 5.46094 11.2186 6.28141C12.0391 7.10188 12.5 8.21468 12.5 9.375ZM36.25 9.375C36.25 9.94953 36.1368 10.5184 35.917 11.0492C35.6971 11.58 35.3749 12.0623 34.9686 12.4686C34.5623 12.8748 34.08 13.1971 33.5492 13.417C33.0184 13.6368 32.4495 13.75 31.875 13.75C31.3005 13.75 30.7316 13.6368 30.2008 13.417C29.67 13.1971 29.1877 12.8748 28.7814 12.4686C28.3752 12.0623 28.0529 11.58 27.833 11.0492C27.6132 10.5184 27.5 9.94953 27.5 9.375C27.5 8.21468 27.9609 7.10188 28.7814 6.28141C29.6019 5.46094 30.7147 5 31.875 5C33.0353 5 34.1481 5.46094 34.9686 6.28141C35.7891 7.10188 36.25 8.21468 36.25 9.375ZM11.7212 16.25C11.0097 17.1359 10.6228 18.2387 10.625 19.375V28.75C10.625 30.2938 10.9975 31.75 11.6587 33.0338C10.7061 33.5347 9.6402 33.7811 8.56435 33.7491C7.48849 33.7171 6.43912 33.4079 5.51788 32.8513C4.59665 32.2946 3.83477 31.5096 3.30605 30.572C2.77732 29.6345 2.49968 28.5763 2.5 27.5V19.375C2.5 18.5462 2.82924 17.7513 3.41529 17.1653C4.00134 16.5792 4.7962 16.25 5.625 16.25H11.7212ZM28.3413 33.0338C29.0213 31.7083 29.3757 30.2398 29.375 28.75V19.375C29.375 18.1925 28.965 17.1062 28.2787 16.25H34.375C35.2038 16.25 35.9987 16.5792 36.5847 17.1653C37.1708 17.7513 37.5 18.5462 37.5 19.375V27.5C37.5003 28.5763 37.2227 29.6345 36.694 30.572C36.1652 31.5096 35.4034 32.2946 34.4821 32.8513C33.5609 33.4079 32.5115 33.7171 31.4357 33.7491C30.3598 33.7811 29.2939 33.5347 28.3413 33.0338ZM15.625 16.25C14.7962 16.25 14.0013 16.5792 13.4153 17.1653C12.8292 17.7513 12.5 18.5462 12.5 19.375V28.75C12.5 30.7391 13.2902 32.6468 14.6967 34.0533C16.1032 35.4598 18.0109 36.25 20 36.25C21.9891 36.25 23.8968 35.4598 25.3033 34.0533C26.7098 32.6468 27.5 30.7391 27.5 28.75V19.375C27.5 18.5462 27.1708 17.7513 26.5847 17.1653C25.9987 16.5792 25.2038 16.25 24.375 16.25H15.625Z" fill="white"/>
</svg>
