<svg width="40" height="40" viewBox="0 0 40 40" fill="none" xmlns="http://www.w3.org/2000/svg">
<path fill-rule="evenodd" clip-rule="evenodd" d="M26.8949 7.88008L29.9449 10.9301C34.4266 15.4134 36.6666 17.6534 36.6666 20.4368C36.6666 23.2218 34.4266 25.4618 29.9449 29.9434C25.4616 34.4268 23.2216 36.6668 20.4366 36.6668C17.6533 36.6668 15.4116 34.4268 10.9299 29.9451L7.87994 26.8951C5.30494 24.3184 4.01661 23.0317 3.53827 21.3601C3.05827 19.6884 3.46827 17.9134 4.28827 14.3651L4.75994 12.3184C5.44827 9.33175 5.79327 7.83842 6.81494 6.81508C7.83661 5.79175 9.33161 5.44842 12.3183 4.76008L14.3649 4.28675C17.9149 3.46842 19.6883 3.05842 21.3599 3.53675C23.0316 4.01675 24.3199 5.30508 26.8949 7.88008ZM18.5766 23.8801C17.4549 22.7601 17.4633 21.1501 18.1349 19.8751C17.9687 19.6349 17.8917 19.3441 17.9176 19.0531C17.9434 18.7621 18.0703 18.4894 18.2762 18.2822C18.4822 18.0751 18.7542 17.9466 19.0451 17.9191C19.3359 17.8916 19.6271 17.9669 19.8683 18.1318C20.4349 17.8317 21.0566 17.6718 21.6766 17.6784C22.0081 17.6815 22.3248 17.8162 22.5571 18.0528C22.7893 18.2894 22.918 18.6086 22.9149 18.9401C22.9118 19.2716 22.7772 19.5883 22.5406 19.8205C22.304 20.0528 21.9848 20.1815 21.6533 20.1784C21.2674 20.1927 20.9026 20.3586 20.6383 20.6401C19.9933 21.2851 20.1616 21.9317 20.3433 22.1134C20.5266 22.2951 21.1716 22.4634 21.8166 21.8184C23.1233 20.5117 25.3799 20.0784 26.8249 21.5234C27.9466 22.6451 27.9383 24.2551 27.2666 25.5301C27.4318 25.7703 27.5079 26.0607 27.4816 26.3511C27.4553 26.6415 27.3284 26.9136 27.1227 27.1202C26.917 27.3269 26.6456 27.4551 26.3553 27.4828C26.0651 27.5105 25.7743 27.4358 25.5333 27.2718C24.7854 27.6821 23.9178 27.8188 23.0799 27.6584C22.755 27.5917 22.47 27.3986 22.2874 27.1217C22.1049 26.8447 22.0399 26.5066 22.1066 26.1817C22.1734 25.8569 22.3664 25.5718 22.6434 25.3893C22.9203 25.2067 23.2584 25.1417 23.5833 25.2084C23.8783 25.2701 24.3549 25.1734 24.7633 24.7651C25.4083 24.1184 25.2399 23.4734 25.0583 23.2918C24.8749 23.1101 24.2299 22.9418 23.5849 23.5868C22.2783 24.8934 20.0216 25.3267 18.5766 23.8801ZM16.6999 17.1551C17.0094 16.8455 17.2549 16.478 17.4223 16.0735C17.5898 15.6691 17.6759 15.2356 17.6759 14.7978C17.6758 14.3601 17.5895 13.9266 17.4219 13.5222C17.2543 13.1178 17.0087 12.7504 16.6991 12.4409C16.3895 12.1314 16.022 11.886 15.6175 11.7185C15.2131 11.5511 14.7796 11.4649 14.3419 11.465C13.9041 11.4651 13.4707 11.5514 13.0663 11.719C12.6619 11.8866 12.2944 12.1322 11.9849 12.4418C11.3599 13.067 11.0089 13.9149 11.009 14.799C11.0092 15.6831 11.3605 16.5309 11.9858 17.1559C12.611 17.7809 13.459 18.132 14.343 18.1318C15.2271 18.1317 16.0749 17.7803 16.6999 17.1551Z" fill="#ed250a"/>
</svg>
