<svg width="40" height="40" viewBox="0 0 40 40" fill="none" xmlns="http://www.w3.org/2000/svg">
<path d="M6.66664 20.0413C6.66664 22.4025 7.25719 24.5969 8.4383 26.6247C9.61942 28.6525 11.2233 30.2775 13.25 31.4997C13.6389 31.7497 13.91 32.0902 14.0633 32.5213C14.2166 32.9525 14.1816 33.3619 13.9583 33.7497C13.7361 34.1663 13.3961 34.4375 12.9383 34.563C12.4805 34.6886 12.0427 34.6397 11.625 34.4163C9.04164 32.9163 7.01386 30.8886 5.54164 28.333C4.06942 25.7775 3.3333 23.0136 3.3333 20.0413C3.3333 19.3191 3.38219 18.6108 3.47997 17.9163C3.57775 17.2219 3.70942 16.5275 3.87497 15.833L3.3333 16.1663C2.94442 16.4163 2.52775 16.4791 2.0833 16.3547C1.63886 16.2302 1.30553 15.973 1.0833 15.583C0.861082 15.193 0.812193 14.7691 0.936637 14.3113C1.06108 13.8536 1.3183 13.5136 1.7083 13.2913L6.74997 10.3747C7.13886 10.1525 7.56275 10.1041 8.02164 10.2297C8.48053 10.3552 8.82053 10.6119 9.04164 10.9997L11.9583 15.9997C12.1805 16.3886 12.2294 16.8125 12.105 17.2713C11.9805 17.7302 11.7233 18.0702 11.3333 18.2913C10.9433 18.5125 10.52 18.5613 10.0633 18.438C9.60664 18.3147 9.26608 18.0575 9.04164 17.6663L7.62497 15.208C7.31942 15.9858 7.0833 16.7775 6.91664 17.583C6.74997 18.3886 6.66664 19.208 6.66664 20.0413ZM20 6.66634C18.8611 6.66634 17.7361 6.81245 16.625 7.10467C15.5139 7.3969 14.4583 7.82023 13.4583 8.37467C13.0416 8.5969 12.6044 8.67356 12.1466 8.60467C11.6889 8.53579 11.3483 8.30634 11.125 7.91634C10.875 7.4719 10.8194 7.02079 10.9583 6.56301C11.0972 6.10523 11.3889 5.75079 11.8333 5.49967C13.0833 4.77745 14.3961 4.23579 15.7716 3.87467C17.1472 3.51356 18.5566 3.33301 20 3.33301C22.1944 3.33301 24.2989 3.74301 26.3133 4.56301C28.3277 5.38301 30.1261 6.57023 31.7083 8.12467V7.49967C31.7083 7.02745 31.8683 6.6319 32.1883 6.31301C32.5083 5.99412 32.9039 5.83412 33.375 5.83301C33.8461 5.8319 34.2422 5.9919 34.5633 6.31301C34.8844 6.63412 35.0439 7.02967 35.0416 7.49967V13.333C35.0416 13.8052 34.8822 14.2013 34.5633 14.5213C34.2444 14.8413 33.8483 15.0008 33.375 14.9997H27.5416C27.0694 14.9997 26.6739 14.8397 26.355 14.5197C26.0361 14.1997 25.8761 13.8041 25.875 13.333C25.8739 12.8619 26.0339 12.4663 26.355 12.1463C26.6761 11.8263 27.0716 11.6663 27.5416 11.6663H30.4166C29.1389 10.083 27.5972 8.85412 25.7916 7.97967C23.9861 7.10523 22.0555 6.66745 20 6.66634ZM30.0833 28.7913C31.1389 27.5691 31.9444 26.2219 32.5 24.7497C33.0555 23.2775 33.3333 21.7358 33.3333 20.1247C33.3333 19.6525 33.4933 19.2358 33.8133 18.8747C34.1333 18.5136 34.5289 18.333 35 18.333C35.4711 18.333 35.8672 18.5136 36.1883 18.8747C36.5094 19.2358 36.6689 19.6525 36.6666 20.1247C36.6666 21.9302 36.3816 23.673 35.8116 25.353C35.2416 27.033 34.4155 28.5958 33.3333 30.0413C32.2511 31.4869 30.9666 32.723 29.48 33.7497C27.9933 34.7763 26.375 35.5402 24.625 36.0413L25.0416 36.2913C25.4305 36.5136 25.6805 36.8541 25.7916 37.313C25.9028 37.7719 25.8472 38.1952 25.625 38.583C25.4027 38.9708 25.0694 39.2208 24.625 39.333C24.1805 39.4452 23.7639 39.3897 23.375 39.1663L18.2916 36.2497C17.9028 36.0275 17.6461 35.6869 17.5216 35.228C17.3972 34.7691 17.4455 34.3458 17.6666 33.958L20.5833 28.9163C20.8055 28.5275 21.1389 28.2775 21.5833 28.1663C22.0277 28.0552 22.4444 28.1108 22.8333 28.333C23.2222 28.5552 23.4794 28.8958 23.605 29.3547C23.7305 29.8136 23.6816 30.2369 23.4583 30.6247L21.9166 33.2497C23.5 33.0275 24.9933 32.5341 26.3966 31.7697C27.8 31.0052 29.0289 30.0125 30.0833 28.7913Z" fill="#ed250a"/>
</svg>
