<svg width="40" height="40" viewBox="0 0 40 40" fill="none" xmlns="http://www.w3.org/2000/svg">
<path fill-rule="evenodd" clip-rule="evenodd" d="M12.545 4.42858C14.6282 3.89185 16.8193 3.94147 18.876 4.57195C20.9328 5.20243 22.7752 6.38924 24.1998 8.00123C25.6243 9.61323 26.5755 11.5877 26.9482 13.7064C27.3209 15.8251 27.1006 18.0056 26.3117 20.0069L33.9767 26.4953C34.558 26.9865 35.031 27.5931 35.3659 28.2766C35.7007 28.9601 35.89 29.7057 35.9218 30.4661C35.9536 31.2265 35.8273 31.9853 35.5508 32.6944C35.2742 33.4035 34.8535 34.0475 34.3153 34.5856C33.7771 35.1237 33.133 35.5443 32.4238 35.8207C31.7147 36.097 30.9559 36.2232 30.1955 36.1912C29.435 36.1592 28.6895 35.9698 28.0061 35.6348C27.3226 35.2998 26.7162 34.8267 26.225 34.2453L19.74 26.5836C17.7384 27.3738 15.5573 27.595 13.4378 27.2229C11.3182 26.8508 9.34291 25.8998 7.73016 24.4751C6.11742 23.0503 4.93008 21.2074 4.29943 19.1499C3.66878 17.0925 3.61938 14.9007 4.15669 12.8169C4.23245 12.5241 4.38569 12.2572 4.6003 12.0441C4.81492 11.831 5.08297 11.6796 5.3763 11.606C5.66962 11.5323 5.97737 11.539 6.2672 11.6254C6.55703 11.7118 6.81824 11.8747 7.02336 12.0969L12.0984 17.6086L15.9267 16.2003L17.3384 12.3669L11.8234 7.30025C11.5998 7.0952 11.4358 6.83354 11.3487 6.54294C11.2616 6.25235 11.2546 5.94362 11.3286 5.6494C11.4025 5.35518 11.5546 5.08641 11.7687 4.87151C11.9828 4.65662 12.2511 4.50358 12.545 4.42858Z" fill="#ed250a"/>
</svg>
