<svg width="40" height="40" viewBox="0 0 40 40" fill="none" xmlns="http://www.w3.org/2000/svg">
<path d="M36.6167 15.7836C36.6151 16.1561 36.4969 16.5188 36.2787 16.8207C36.0605 17.1226 35.7533 17.3486 35.4001 17.4669L32.2667 18.5003C31.283 18.8292 30.3896 19.3832 29.6576 20.1181C28.9255 20.853 28.3751 21.7486 28.05 22.7336L26.9667 25.8503C26.8423 26.198 26.6157 26.5001 26.3167 26.7169C26.0901 26.8802 25.828 26.9873 25.552 27.0296C25.2759 27.072 24.9937 27.0483 24.7286 26.9604C24.4635 26.8726 24.223 26.7232 24.0268 26.5244C23.8307 26.3256 23.6844 26.0832 23.6 25.8169L22.55 22.6836C22.2114 21.6956 21.6397 20.8038 20.8834 20.0836C20.152 19.3329 19.2562 18.7624 18.2667 18.4169L15.1334 17.3669C14.7786 17.2552 14.4686 17.0334 14.2484 16.7336C14.0324 16.4292 13.9163 16.0652 13.9163 15.6919C13.9163 15.3187 14.0324 14.9547 14.2484 14.6503C14.4699 14.3417 14.7858 14.1135 15.1484 14.0003L18.265 12.9503C19.2681 12.6129 20.1765 12.0416 20.915 11.2836C21.665 10.5453 22.2367 9.64361 22.5817 8.65027L23.615 5.56694C23.7128 5.21466 23.9236 4.90428 24.215 4.68361C24.5083 4.44834 24.8724 4.31912 25.2484 4.31694C25.6207 4.30796 25.987 4.4126 26.2984 4.61694C26.615 4.81562 26.8557 5.11499 26.9817 5.46694L28.0317 8.65027C28.3767 9.64361 28.9484 10.5453 29.6984 11.2836C30.4322 12.0394 31.3346 12.6106 32.3317 12.9503L35.4484 14.0503C35.7992 14.16 36.1039 14.3827 36.315 14.6836C36.5317 15.0069 36.64 15.3919 36.6167 15.7836ZM20.1667 27.3336C20.1659 27.6735 20.0612 28.0049 19.8667 28.2836C19.6653 28.5546 19.3863 28.758 19.0667 28.8669L16.8167 29.6169C16.1863 29.8392 15.6159 30.2043 15.15 30.6836C14.6752 31.1531 14.3109 31.7225 14.0834 32.3503L13.3 34.5836C13.1911 34.9032 12.9877 35.1822 12.7167 35.3836C12.4361 35.5808 12.1014 35.6867 11.7584 35.6867C11.4154 35.6867 11.0807 35.5808 10.8 35.3836C10.5291 35.1822 10.3256 34.9032 10.2167 34.5836L9.48338 32.3503C9.2554 31.7223 8.89046 31.153 8.41505 30.6836C7.94551 30.2088 7.3762 29.8444 6.74838 29.6169L4.49838 28.8836C4.17659 28.7702 3.89735 28.5608 3.69838 28.2836C3.49794 28.0069 3.38739 27.6752 3.38171 27.3336C3.38772 26.9899 3.49985 26.6565 3.70274 26.379C3.90563 26.1015 4.18936 25.8936 4.51505 25.7836L6.74838 25.0503C7.37391 24.8183 7.94196 24.454 8.41371 23.9823C8.88545 23.5105 9.24976 22.9425 9.48171 22.3169L10.2317 20.1169C10.3316 19.8016 10.5231 19.5231 10.7817 19.3169C11.0521 19.1109 11.3791 18.9926 11.7187 18.9777C12.0583 18.9628 12.3943 19.0521 12.6817 19.2336C12.9667 19.4303 13.1867 19.7086 13.315 20.0336L14.065 22.3169C14.297 22.9425 14.6613 23.5105 15.1331 23.9823C15.6048 24.454 16.1729 24.8183 16.7984 25.0503L19.0317 25.8336C19.3506 25.9352 19.6263 26.1406 19.815 26.4169C20.0269 26.6771 20.1495 26.9985 20.165 27.3336" fill="#ed250a"/>
</svg>
