<svg width="40" height="40" viewBox="0 0 40 40" fill="none" xmlns="http://www.w3.org/2000/svg">
<path d="M20 19.3762C22.2814 19.3762 24.2436 17.339 24.2436 14.6862C24.2436 12.0655 22.2707 10.124 20 10.124C17.7293 10.124 15.7557 12.1083 15.7557 14.7076C15.7557 17.339 17.7186 19.3762 20 19.3762ZM7.78786 19.6197C9.76143 19.6197 11.4807 17.8376 11.4807 15.5355C11.4807 13.254 9.75071 11.5669 7.78786 11.5669C5.81429 11.5669 4.07429 13.2962 4.085 15.5562C4.085 17.8376 5.80357 19.6205 7.78786 19.6205M32.2121 19.6205C34.1964 19.6205 35.915 17.8383 35.915 15.5569C35.915 13.2969 34.1857 11.5676 32.2121 11.5676C30.2493 11.5676 28.5193 13.2547 28.5193 15.5355C28.5193 17.8383 30.2386 19.6205 32.2121 19.6205ZM1.86714 29.2012H9.93143C8.82786 27.599 10.175 24.3733 12.4564 22.6119C11.2779 21.8269 9.76143 21.2433 7.77786 21.2433C2.99143 21.2433 0 24.7762 0 27.7155C0 28.6705 0.530714 29.2012 1.86714 29.2012ZM38.1329 29.2012C39.48 29.2012 40 28.6705 40 27.7155C40 24.7762 37.0079 21.2433 32.2229 21.2433C30.2386 21.2433 28.7214 21.8269 27.5443 22.6119C29.825 24.3733 31.1729 27.599 30.0693 29.2012H38.1329ZM13.3257 29.2012H26.6629C28.3286 29.2012 28.9229 28.7233 28.9229 27.7897C28.9229 25.0526 25.4957 21.2755 19.9893 21.2755C14.4936 21.2755 11.0664 25.0526 11.0664 27.7897C11.0664 28.7233 11.66 29.2012 13.3257 29.2012Z" fill="#ed250a"/>
</svg>
