<svg width="40" height="40" viewBox="0 0 40 40" fill="none" xmlns="http://www.w3.org/2000/svg">
<path d="M28.3334 5.56714C30.8472 7.01856 32.9383 9.10135 34.3997 11.6093C35.8612 14.1173 36.6423 16.9634 36.6658 19.866C36.6892 22.7687 35.9542 25.6271 34.5334 28.1583C33.1127 30.6895 31.0554 32.8058 28.5654 34.2977C26.0754 35.7895 23.239 36.6052 20.3369 36.6639C17.4348 36.7226 14.5676 36.0224 12.0193 34.6325C9.47097 33.2427 7.32983 31.2113 5.80782 28.7397C4.28581 26.268 3.43572 23.4417 3.34171 20.5405L3.33337 20.0005L3.34171 19.4605C3.43505 16.5821 4.27262 13.7771 5.77277 11.3188C7.27293 8.86051 9.38446 6.83289 11.9015 5.43361C14.4186 4.03433 17.2553 3.31113 20.1351 3.33453C23.0148 3.35794 25.8394 4.12713 28.3334 5.56714ZM20 10.0005C19.5918 10.0005 19.1978 10.1504 18.8928 10.4217C18.5877 10.6929 18.3928 11.0667 18.345 11.4721L18.3334 11.6671V20.0005L18.3484 20.2188C18.3864 20.508 18.4996 20.7821 18.6767 21.0138L18.8217 21.1805L23.8217 26.1805L23.9784 26.3171C24.2707 26.5439 24.6301 26.667 25 26.667C25.37 26.667 25.7294 26.5439 26.0217 26.3171L26.1784 26.1788L26.3167 26.0221C26.5435 25.7298 26.6666 25.3704 26.6666 25.0005C26.6666 24.6305 26.5435 24.2711 26.3167 23.9788L26.1784 23.8221L21.6667 19.3088V11.6671L21.655 11.4721C21.6073 11.0667 21.4124 10.6929 21.1073 10.4217C20.8023 10.1504 20.4083 10.0005 20 10.0005Z" fill="#ed250a"/>
</svg>
