<svg width="40" height="40" viewBox="0 0 40 40" fill="none" xmlns="http://www.w3.org/2000/svg">
<path d="M18.3333 22.8747L12.8333 26.0413L12 30.6247C11.9167 31.0969 11.6944 31.4652 11.3333 31.7297C10.9722 31.9941 10.5555 32.0841 10.0833 31.9997C9.6111 31.9152 9.24999 31.6863 8.99999 31.313C8.74999 30.9397 8.66665 30.5158 8.74999 30.0413L9.08332 28.2497L7.83332 28.958C7.44443 29.1802 7.02777 29.2291 6.58332 29.1047C6.13888 28.9802 5.80554 28.723 5.58332 28.333C5.3611 27.943 5.30554 27.5191 5.41665 27.0613C5.52777 26.6036 5.77777 26.2636 6.16665 26.0413L7.41665 25.333L5.66665 24.708C5.22221 24.5691 4.90277 24.2913 4.70832 23.8747C4.51388 23.458 4.49999 23.0275 4.66665 22.583C4.80554 22.1386 5.08332 21.8258 5.49999 21.6447C5.91665 21.4636 6.34721 21.443 6.79165 21.583L11.1667 23.1663L16.6667 19.9997L11.1667 16.833L6.79165 18.4163C6.34721 18.5552 5.92332 18.5341 5.51999 18.353C5.11665 18.1719 4.83221 17.8597 4.66665 17.4163C4.5011 16.973 4.51499 16.5358 4.70832 16.1047C4.90165 15.6736 5.2211 15.3886 5.66665 15.2497L7.41665 14.6663L6.16665 13.958C5.77777 13.7358 5.52777 13.3958 5.41665 12.938C5.30554 12.4802 5.3611 12.0563 5.58332 11.6663C5.80554 11.2763 6.13888 11.0197 6.58332 10.8963C7.02777 10.773 7.44443 10.8213 7.83332 11.0413L9.08332 11.7497L8.74999 9.95801C8.66665 9.48579 8.74999 9.06246 8.99999 8.68801C9.24999 8.31357 9.6111 8.08413 10.0833 7.99968C10.5555 7.91524 10.9722 8.00579 11.3333 8.27135C11.6944 8.5369 11.9167 8.90468 12 9.37468L12.8333 13.958L18.3333 17.1247V10.7497L14.7917 7.74968C14.4305 7.44412 14.2289 7.06912 14.1867 6.62468C14.1444 6.18024 14.2767 5.77746 14.5833 5.41635C14.89 5.05524 15.265 4.85412 15.7083 4.81301C16.1517 4.7719 16.5544 4.90357 16.9167 5.20801L18.3333 6.41635V4.99968C18.3333 4.52746 18.4933 4.1319 18.8133 3.81301C19.1333 3.49412 19.5289 3.33412 20 3.33301C20.4711 3.3319 20.8672 3.4919 21.1883 3.81301C21.5094 4.13412 21.6689 4.52968 21.6667 4.99968V6.41635L23.0833 5.20801C23.4444 4.90246 23.8472 4.77024 24.2917 4.81135C24.7361 4.85246 25.1111 5.05412 25.4167 5.41635C25.7222 5.77857 25.8544 6.18135 25.8133 6.62468C25.7722 7.06801 25.5705 7.44301 25.2083 7.74968L21.6667 10.7497V17.1247L27.1667 13.958L28 9.37468C28.0833 8.90246 28.3055 8.53412 28.6667 8.26968C29.0278 8.00524 29.4444 7.91524 29.9167 7.99968C30.3889 8.08413 30.75 8.31357 31 8.68801C31.25 9.06246 31.3333 9.48579 31.25 9.95801L30.9167 11.7497L32.1667 11.0413C32.5555 10.8191 32.9722 10.7708 33.4167 10.8963C33.8611 11.0219 34.1944 11.2786 34.4167 11.6663C34.6389 12.0541 34.6944 12.478 34.5833 12.938C34.4722 13.398 34.2222 13.738 33.8333 13.958L32.5833 14.6663L34.3333 15.2913C34.7778 15.4302 35.0972 15.708 35.2917 16.1247C35.4861 16.5413 35.5 16.9719 35.3333 17.4163C35.1944 17.8608 34.9167 18.1736 34.5 18.3547C34.0833 18.5358 33.6528 18.5563 33.2083 18.4163L28.8333 16.833L23.3333 19.9997L28.8333 23.1663L33.2083 21.583C33.6528 21.4441 34.0767 21.4652 34.48 21.6463C34.8833 21.8275 35.1678 22.1397 35.3333 22.583C35.4989 23.0263 35.485 23.4641 35.2917 23.8963C35.0983 24.3286 34.7789 24.613 34.3333 24.7497L32.5833 25.333L33.8333 26.0413C34.2222 26.2636 34.4722 26.6041 34.5833 27.063C34.6944 27.5219 34.6389 27.9452 34.4167 28.333C34.1944 28.7208 33.8611 28.978 33.4167 29.1047C32.9722 29.2313 32.5555 29.1825 32.1667 28.958L30.9167 28.2497L31.25 30.0413C31.3333 30.5136 31.25 30.9375 31 31.313C30.75 31.6886 30.3889 31.9175 29.9167 31.9997C29.4444 32.0819 29.0278 31.9919 28.6667 31.7297C28.3055 31.4675 28.0833 31.0991 28 30.6247L27.1667 26.0413L21.6667 22.8747V29.2497L25.2083 32.2497C25.5694 32.5552 25.7711 32.9302 25.8133 33.3747C25.8555 33.8191 25.7233 34.2219 25.4167 34.583C25.11 34.9441 24.735 35.1458 24.2917 35.188C23.8483 35.2302 23.4455 35.098 23.0833 34.7913L21.6667 33.583V34.9997C21.6667 35.4719 21.5067 35.868 21.1867 36.188C20.8667 36.508 20.4711 36.6675 20 36.6663C19.5289 36.6652 19.1333 36.5052 18.8133 36.1863C18.4933 35.8675 18.3333 35.4719 18.3333 34.9997V33.583L16.9167 34.7913C16.5555 35.0969 16.1528 35.2291 15.7083 35.188C15.2639 35.1469 14.8889 34.9452 14.5833 34.583C14.2778 34.2208 14.1455 33.818 14.1867 33.3747C14.2278 32.9313 14.4294 32.5563 14.7917 32.2497L18.3333 29.2497V22.8747Z" fill="#ed250a"/>
</svg>
