<svg width="40" height="40" viewBox="0 0 40 40" fill="none" xmlns="http://www.w3.org/2000/svg">
<path d="M16.8917 35L16.2884 30.18C15.7562 30.0189 15.1812 29.7667 14.5634 29.4233C13.9445 29.0789 13.4184 28.71 12.9851 28.3167L8.53839 30.2083L5.43005 24.7917L9.27339 21.8933C9.22339 21.5933 9.18283 21.2833 9.15172 20.9633C9.11839 20.6433 9.10172 20.3328 9.10172 20.0317C9.10172 19.7517 9.11839 19.4572 9.15172 19.1483C9.18283 18.8394 9.22339 18.4917 9.27339 18.105L5.43005 15.21L8.53839 9.85667L12.9517 11.7167C13.4495 11.3022 13.9884 10.9283 14.5684 10.595C15.1462 10.2617 15.7089 10.0039 16.2567 9.82167L16.8901 5H23.1101L23.7117 9.85333C24.3506 10.0778 24.9151 10.335 25.4051 10.625C25.8951 10.915 26.4001 11.2783 26.9201 11.715L31.4617 9.85667L34.5701 15.2083L30.6001 18.2017C30.6912 18.5461 30.7423 18.8622 30.7534 19.15C30.7645 19.4378 30.7701 19.7211 30.7701 20C30.7701 20.2589 30.7589 20.5317 30.7367 20.8183C30.7156 21.1061 30.6667 21.4539 30.5901 21.8617L34.4967 24.7917L31.3884 30.2083L26.9201 28.285C26.4012 28.7217 25.8789 29.0956 25.3534 29.4067C24.8278 29.7178 24.2806 29.965 23.7117 30.1483L23.1101 35H16.8917ZM19.9551 24.1667C21.1173 24.1667 22.1023 23.7628 22.9101 22.955C23.7178 22.1472 24.1217 21.1622 24.1217 20C24.1217 18.8378 23.7178 17.8528 22.9101 17.045C22.1023 16.2372 21.1173 15.8333 19.9551 15.8333C18.7862 15.8333 17.7995 16.2372 16.9951 17.045C16.1906 17.8528 15.7884 18.8378 15.7884 20C15.7884 21.1622 16.1906 22.1472 16.9951 22.955C17.7995 23.7628 18.7862 24.1667 19.9551 24.1667Z" fill="#ed250a"/>
</svg>
