<svg width="40" height="40" viewBox="0 0 40 40" fill="none" xmlns="http://www.w3.org/2000/svg">
<path d="M20 37.0753C29.325 37.0753 37.0758 29.341 37.0758 19.9995C37.0758 10.6745 29.3079 2.92383 19.9829 2.92383C10.6422 2.92383 2.92505 10.6745 2.92505 19.9995C2.92505 29.341 10.6586 37.0753 20 37.0753ZM19.9843 22.511C19.0965 22.511 18.6115 21.9917 18.5772 21.1038L18.3429 12.8353C18.3093 11.9138 19.0122 11.2617 19.9665 11.2617C20.9043 11.2617 21.6236 11.931 21.5908 12.8517L21.3558 21.1053C21.3222 22.0088 20.82 22.5117 19.9836 22.5117M19.9836 28.6724C19.0122 28.6724 18.1079 27.9024 18.1079 26.8638C18.1079 25.8253 18.9958 25.0567 19.9836 25.0567C20.9543 25.0567 21.8579 25.8095 21.8579 26.8638C21.8579 27.9188 20.9372 28.6724 19.9836 28.6724Z" fill="#ed250a"/>
</svg>
