<svg width="40" height="40" viewBox="0 0 40 40" fill="none" xmlns="http://www.w3.org/2000/svg">
<path d="M20.406 1.1223C20.352 0.692305 19.646 0.692305 19.594 1.1223C17.828 15.3363 8.79797 18.2663 8.79797 28.1463C8.79797 34.2523 13.926 39.2003 20 39.2003C26.074 39.2003 31.2 34.2503 31.2 28.1463C31.2 18.2663 22.172 15.3363 20.406 1.1223ZM18.7 16.8363C18.58 17.2736 18.454 17.7256 18.322 18.1923C17.52 21.0403 16.61 24.2703 16.61 28.0043C16.61 30.0283 15.414 30.7463 14.298 30.7463C13.993 30.7453 13.6912 30.6841 13.4098 30.5663C13.1285 30.4485 12.8731 30.2763 12.6584 30.0597C12.4437 29.8431 12.2737 29.5863 12.1584 29.304C12.043 29.0216 11.9844 28.7193 11.986 28.4143C11.986 24.0003 14.11 21.1163 15.986 18.5743C16.576 17.7783 17.13 17.0243 17.58 16.2743C17.786 15.9303 18.34 15.9463 18.592 16.2863C18.71 16.4463 18.75 16.6503 18.7 16.8363Z" fill="#ed250a"/>
</svg>
