<svg width="120" height="24" viewBox="0 0 120 24" fill="none" xmlns="http://www.w3.org/2000/svg">
<path d="M12.8538 3.50033C12.7688 3.34858 12.6448 3.22223 12.4947 3.13429C12.3446 3.04635 12.1738 3 11.9998 3C11.8258 3 11.655 3.04635 11.5049 3.13429C11.3548 3.22223 11.2309 3.34858 11.1458 3.50033C10.9458 3.86433 10.7535 4.233 10.5688 4.60633C9.98701 5.78729 9.49235 7.00921 9.08881 8.26233C8.94981 8.69333 8.53781 8.99233 8.06581 9.00533C6.63503 9.04294 5.2089 9.18499 3.79881 9.43033C3.02481 9.56633 2.73381 10.4483 3.28381 10.9863C3.40914 11.1097 3.53581 11.2313 3.66381 11.3513C4.62087 12.2552 5.63279 13.0991 6.69381 13.8783C7.06081 14.1473 7.21181 14.6083 7.07181 15.0303C6.5385 16.6334 6.15683 18.2829 5.93181 19.9573C5.83181 20.7123 6.63981 21.2453 7.34181 20.8853C8.73385 20.1716 10.065 19.3448 11.3218 18.4133C11.5187 18.2696 11.7561 18.1922 11.9998 18.1922C12.2435 18.1922 12.481 18.2696 12.6778 18.4133C13.9344 19.3452 15.2655 20.172 16.6578 20.8853C17.3588 21.2453 18.1678 20.7123 18.0678 19.9573C18.0291 19.674 17.9868 19.3923 17.9408 19.1123C17.7098 17.7274 17.3711 16.3626 16.9278 15.0303C16.7878 14.6083 16.9378 14.1473 17.3058 13.8783C18.5095 12.9963 19.6491 12.0299 20.7158 10.9863C21.2658 10.4483 20.9758 9.56633 20.2008 9.43033C18.7909 9.18356 17.3647 9.0415 15.9338 9.00533C15.7076 9.00173 15.488 8.92845 15.3049 8.79549C15.1218 8.66253 14.9842 8.47635 14.9108 8.26233C14.3795 6.613 13.6907 5.01765 12.8538 3.50033Z" fill="#FFBB00"/>
<path d="M36.8538 3.50033C36.7688 3.34858 36.6448 3.22223 36.4947 3.13429C36.3446 3.04635 36.1738 3 35.9998 3C35.8258 3 35.655 3.04635 35.5049 3.13429C35.3548 3.22223 35.2309 3.34858 35.1458 3.50033C34.9458 3.86433 34.7535 4.233 34.5688 4.60633C33.987 5.78729 33.4924 7.00921 33.0888 8.26233C32.9498 8.69333 32.5378 8.99233 32.0658 9.00533C30.635 9.04294 29.2089 9.18499 27.7988 9.43033C27.0248 9.56633 26.7338 10.4483 27.2838 10.9863C27.4091 11.1097 27.5358 11.2313 27.6638 11.3513C28.6209 12.2552 29.6328 13.0991 30.6938 13.8783C31.0608 14.1473 31.2118 14.6083 31.0718 15.0303C30.5385 16.6334 30.1568 18.2829 29.9318 19.9573C29.8318 20.7123 30.6398 21.2453 31.3418 20.8853C32.7339 20.1716 34.065 19.3448 35.3218 18.4133C35.5187 18.2696 35.7561 18.1922 35.9998 18.1922C36.2435 18.1922 36.481 18.2696 36.6778 18.4133C37.9344 19.3452 39.2655 20.172 40.6578 20.8853C41.3588 21.2453 42.1678 20.7123 42.0678 19.9573C42.0291 19.674 41.9868 19.3923 41.9408 19.1123C41.7098 17.7274 41.3711 16.3626 40.9278 15.0303C40.7878 14.6083 40.9378 14.1473 41.3058 13.8783C42.5095 12.9963 43.6491 12.0299 44.7158 10.9863C45.2658 10.4483 44.9758 9.56633 44.2008 9.43033C42.7909 9.18356 41.3647 9.0415 39.9338 9.00533C39.7076 9.00173 39.488 8.92845 39.3049 8.79549C39.1218 8.66253 38.9842 8.47635 38.9108 8.26233C38.3795 6.613 37.6907 5.01765 36.8538 3.50033Z" fill="#FFBB00"/>
<path d="M60.8538 3.50033C60.7688 3.34858 60.6448 3.22223 60.4947 3.13429C60.3446 3.04635 60.1738 3 59.9998 3C59.8258 3 59.655 3.04635 59.5049 3.13429C59.3548 3.22223 59.2309 3.34858 59.1458 3.50033C58.9458 3.86433 58.7535 4.233 58.5688 4.60633C57.987 5.78729 57.4924 7.00921 57.0888 8.26233C56.9498 8.69333 56.5378 8.99233 56.0658 9.00533C54.635 9.04294 53.2089 9.18499 51.7988 9.43033C51.0248 9.56633 50.7338 10.4483 51.2838 10.9863C51.4091 11.1097 51.5358 11.2313 51.6638 11.3513C52.6209 12.2552 53.6328 13.0991 54.6938 13.8783C55.0608 14.1473 55.2118 14.6083 55.0718 15.0303C54.5385 16.6334 54.1568 18.2829 53.9318 19.9573C53.8318 20.7123 54.6398 21.2453 55.3418 20.8853C56.7339 20.1716 58.065 19.3448 59.3218 18.4133C59.5187 18.2696 59.7561 18.1922 59.9998 18.1922C60.2435 18.1922 60.481 18.2696 60.6778 18.4133C61.9344 19.3452 63.2655 20.172 64.6578 20.8853C65.3588 21.2453 66.1678 20.7123 66.0678 19.9573C66.0291 19.674 65.9868 19.3923 65.9408 19.1123C65.7098 17.7274 65.3711 16.3626 64.9278 15.0303C64.7878 14.6083 64.9378 14.1473 65.3058 13.8783C66.5095 12.9963 67.6491 12.0299 68.7158 10.9863C69.2658 10.4483 68.9758 9.56633 68.2008 9.43033C66.7909 9.18356 65.3647 9.0415 63.9338 9.00533C63.7076 9.00173 63.488 8.92845 63.3049 8.79549C63.1218 8.66253 62.9842 8.47635 62.9108 8.26233C62.3795 6.613 61.6907 5.01765 60.8538 3.50033Z" fill="#FFBB00"/>
<path d="M84.8538 3.50033C84.7688 3.34858 84.6448 3.22223 84.4947 3.13429C84.3446 3.04635 84.1738 3 83.9998 3C83.8258 3 83.655 3.04635 83.5049 3.13429C83.3548 3.22223 83.2309 3.34858 83.1458 3.50033C82.9458 3.86433 82.7535 4.233 82.5688 4.60633C81.987 5.78729 81.4924 7.00921 81.0888 8.26233C80.9498 8.69333 80.5378 8.99233 80.0658 9.00533C78.635 9.04294 77.2089 9.18499 75.7988 9.43033C75.0248 9.56633 74.7338 10.4483 75.2838 10.9863C75.4091 11.1097 75.5358 11.2313 75.6638 11.3513C76.6209 12.2552 77.6328 13.0991 78.6938 13.8783C79.0608 14.1473 79.2118 14.6083 79.0718 15.0303C78.5385 16.6334 78.1568 18.2829 77.9318 19.9573C77.8318 20.7123 78.6398 21.2453 79.3418 20.8853C80.7339 20.1716 82.065 19.3448 83.3218 18.4133C83.5187 18.2696 83.7561 18.1922 83.9998 18.1922C84.2435 18.1922 84.481 18.2696 84.6778 18.4133C85.9344 19.3452 87.2655 20.172 88.6578 20.8853C89.3588 21.2453 90.1678 20.7123 90.0678 19.9573C90.0291 19.674 89.9868 19.3923 89.9408 19.1123C89.7098 17.7274 89.3711 16.3626 88.9278 15.0303C88.7878 14.6083 88.9378 14.1473 89.3058 13.8783C90.5095 12.9963 91.6491 12.0299 92.7158 10.9863C93.2658 10.4483 92.9758 9.56633 92.2008 9.43033C90.7909 9.18356 89.3647 9.0415 87.9338 9.00533C87.7076 9.00173 87.488 8.92845 87.3049 8.79549C87.1218 8.66253 86.9842 8.47635 86.9108 8.26233C86.3795 6.613 85.6907 5.01765 84.8538 3.50033Z" fill="#FFBB00"/>
<path d="M108.854 3.50033C108.769 3.34858 108.645 3.22223 108.495 3.13429C108.345 3.04635 108.174 3 108 3C107.826 3 107.655 3.04635 107.505 3.13429C107.355 3.22223 107.231 3.34858 107.146 3.50033C106.946 3.86433 106.753 4.233 106.569 4.60633C105.987 5.78729 105.492 7.00921 105.089 8.26233C104.95 8.69333 104.538 8.99233 104.066 9.00533C102.635 9.04294 101.209 9.18499 99.7988 9.43033C99.0248 9.56633 98.7338 10.4483 99.2838 10.9863C99.4091 11.1097 99.5358 11.2313 99.6638 11.3513C100.621 12.2552 101.633 13.0991 102.694 13.8783C103.061 14.1473 103.212 14.6083 103.072 15.0303C102.539 16.6334 102.157 18.2829 101.932 19.9573C101.832 20.7123 102.64 21.2453 103.342 20.8853C104.734 20.1716 106.065 19.3448 107.322 18.4133C107.519 18.2696 107.756 18.1922 108 18.1922C108.244 18.1922 108.481 18.2696 108.678 18.4133C109.934 19.3452 111.266 20.172 112.658 20.8853C113.359 21.2453 114.168 20.7123 114.068 19.9573C114.029 19.674 113.987 19.3923 113.941 19.1123C113.71 17.7274 113.371 16.3626 112.928 15.0303C112.788 14.6083 112.938 14.1473 113.306 13.8783C114.51 12.9963 115.649 12.0299 116.716 10.9863C117.266 10.4483 116.976 9.56633 116.201 9.43033C114.791 9.18356 113.365 9.0415 111.934 9.00533C111.708 9.00173 111.488 8.92845 111.305 8.79549C111.122 8.66253 110.984 8.47635 110.911 8.26233C110.38 6.613 109.691 5.01765 108.854 3.50033Z" fill="#FFBB00"/>
</svg>
