<svg width="203" height="100" viewBox="0 0 203 100" fill="none" xmlns="http://www.w3.org/2000/svg">
<path d="M40.625 6.25V18.75L34.375 21.875L25 12.5L12.5 25L21.875 34.375L18.75 40.625H6.25V59.375H18.75L21.875 65.625L12.5 75L25 87.5L34.375 78.125L40.625 81.25V93.75H59.375V81.25L65.625 78.125L75 87.5L87.5 75L78.125 65.625L81.25 59.375H93.75V40.625H81.25L78.125 34.375L87.5 25L75 12.5L65.625 21.875L59.375 18.75V6.25H40.625Z" stroke="white" stroke-width="3" stroke-linecap="round" stroke-linejoin="round"/>
<rect width="160" height="40" transform="translate(43 30)" fill="#212121"/>
<path d="M60.072 58.288H62.76C63.2293 57.776 63.56 57.264 63.752 56.752C63.9653 56.2187 64.072 55.44 64.072 54.416V39.6H68.456V52.816C68.456 53.904 68.424 54.7573 68.36 55.376C68.3173 55.9733 68.1893 56.7093 67.976 57.584C67.6133 59.1413 66.6107 60.6133 64.968 62H57.864C56.2213 60.656 55.2187 59.184 54.856 57.584C54.536 56.2827 54.376 54.6933 54.376 52.816V39.6H58.76V54.416C58.76 55.44 58.856 56.2187 59.048 56.752C59.2613 57.264 59.6027 57.776 60.072 58.288ZM81.3638 62L75.3798 49.616L75.2198 49.68L75.4118 53.456V62H71.3798V39.6H74.6118L80.4998 52.464L80.6598 52.4L80.3078 48.464V39.6H84.3398V62H81.3638ZM87.411 62V39.6H91.795V62H87.411Z" fill="#FF1F02"/>
<path d="M105.312 39.6C106.805 40.816 107.914 42.448 108.64 44.496C109.365 46.544 109.728 48.656 109.728 50.832C109.728 52.9867 109.376 55.0347 108.672 56.976C107.968 58.9173 106.848 60.592 105.312 62H104.256L105.248 65.616H101.152L100.16 62H98.7198C97.1838 60.592 96.0638 58.9173 95.3598 56.976C94.6558 55.0347 94.3038 52.9867 94.3038 50.832C94.3038 48.656 94.6664 46.544 95.3918 44.496C96.1171 42.448 97.2264 40.816 98.7198 39.6H105.312ZM100.864 58.288H103.168C103.701 57.6693 104.149 56.6667 104.512 55.28C104.896 53.872 105.088 52.3893 105.088 50.832C105.088 49.2747 104.906 47.8133 104.544 46.448C104.181 45.0613 103.733 44.0587 103.2 43.44H100.864C100.33 44.0587 99.8718 45.0613 99.4878 46.448C99.1251 47.8133 98.9438 49.2747 98.9438 50.832C98.9438 52.3893 99.1251 53.872 99.4878 55.28C99.8718 56.6667 100.33 57.6693 100.864 58.288ZM117.76 58.288H120.448C120.917 57.776 121.248 57.264 121.44 56.752C121.653 56.2187 121.76 55.44 121.76 54.416V39.6H126.144V52.816C126.144 53.904 126.112 54.7573 126.048 55.376C126.005 55.9733 125.877 56.7093 125.664 57.584C125.301 59.1413 124.298 60.6133 122.656 62H115.552C113.909 60.656 112.906 59.184 112.544 57.584C112.224 56.2827 112.064 54.6933 112.064 52.816V39.6H116.448V54.416C116.448 55.44 116.544 56.2187 116.736 56.752C116.949 57.264 117.29 57.776 117.76 58.288ZM138.447 62L137.775 58.448H132.719L132.047 62H127.695L132.015 39.6H138.639L142.735 62H138.447ZM135.183 43.76L133.935 51.216L133.231 55.024H137.231L136.495 51.216L135.247 43.76H135.183ZM144.599 62V39.6H148.983V58.288H155.639V62H144.599ZM157.817 62V39.6H162.201V62H157.817ZM168.902 43.44H164.07V39.6H178.086V43.44H173.254V62H168.902V43.44ZM187.814 62H183.142V54.544L178.406 39.6H182.758L184.742 46.416L185.414 50.352H185.542L186.214 46.416L188.198 39.6H192.55L187.814 54.544V62Z" fill="white"/>
<path d="M124.576 70.72H122.16V68.8H129.168V70.72H126.752V80H124.576V70.72ZM129.392 80V71.824H130.912L131.312 72.688C131.738 72.112 132.277 71.824 132.928 71.824H133.552V73.968H131.52V80H129.392ZM137.301 80H135.621C135.152 79.4027 134.832 78.8053 134.661 78.208C134.491 77.6107 134.405 76.864 134.405 75.968V71.824H136.533V76.128C136.533 77.0987 136.725 77.8293 137.109 78.32H138.597V71.824H140.725V80H139.045L138.757 79.424C138.352 79.808 137.867 80 137.301 80ZM144.078 75.84C144.078 76.288 144.148 76.7467 144.286 77.216C144.425 77.6747 144.617 78.0427 144.862 78.32H147.262V80H143.758C142.5 78.9973 141.87 77.6107 141.87 75.84C141.87 74.0693 142.542 72.7307 143.886 71.824H147.262V73.504H144.862C144.34 74.048 144.078 74.8267 144.078 75.84ZM148.329 80V68.8H150.457V74.736H150.681L152.185 71.824H154.265L152.377 75.392L154.281 80H152.169L150.697 76.416H150.457V80H148.329ZM157.72 80V71.824H159.24L159.64 72.688C160.066 72.112 160.605 71.824 161.256 71.824H161.88V73.968H159.848V80H157.72ZM166.197 73.504H164.997C164.837 73.696 164.703 73.9627 164.597 74.304C164.501 74.6453 164.453 74.976 164.453 75.296H166.741C166.762 74.976 166.719 74.6453 166.613 74.304C166.506 73.952 166.367 73.6853 166.197 73.504ZM168.373 78.32V80H164.309C163.562 79.4987 163.034 78.88 162.725 78.144C162.426 77.3973 162.277 76.6453 162.277 75.888C162.277 74.1387 162.938 72.784 164.261 71.824H166.853C167.567 72.3467 168.053 72.9013 168.309 73.488C168.565 74.0747 168.693 74.6667 168.693 75.264C168.693 75.8613 168.645 76.3733 168.549 76.8H164.565C164.597 77.0453 164.687 77.328 164.837 77.648C164.997 77.9573 165.167 78.1813 165.349 78.32H168.373ZM169.766 71.824H171.478L171.718 72.4C171.953 72.1867 172.171 72.0373 172.374 71.952C172.587 71.8667 172.902 71.824 173.318 71.824H174.758C175.206 72.2613 175.558 72.8267 175.814 73.52C176.07 74.2133 176.198 74.976 176.198 75.808C176.198 77.5893 175.665 78.9867 174.598 80H173.238C172.673 80 172.225 79.8507 171.894 79.552V82.4H169.766V71.824ZM171.894 78.32H173.43C173.825 77.648 174.022 76.832 174.022 75.872C174.022 74.912 173.819 74.1227 173.414 73.504H171.894V78.32ZM181.2 76.304H179.488C179.264 76.5813 179.152 76.928 179.152 77.344C179.152 77.76 179.27 78.0853 179.504 78.32H181.2V76.304ZM177.76 71.824H181.728C182.368 72.208 182.79 72.6507 182.992 73.152C183.195 73.6427 183.296 74.3147 183.296 75.168V77.568C183.296 78.4533 183.318 79.264 183.36 80H181.536L181.248 79.424C180.832 79.808 180.246 80 179.488 80H178.48C177.574 79.4027 177.12 78.544 177.12 77.424C177.12 76.2933 177.584 75.4027 178.512 74.752H180.016C180.432 74.752 180.822 74.88 181.184 75.136V74.336C181.184 73.92 181.003 73.6427 180.64 73.504H177.76V71.824ZM184.672 80V71.824H186.784V80H184.672ZM184.672 68.8H186.784V70.96H184.672V68.8ZM188.173 80V71.824H189.693L190.093 72.688C190.519 72.112 191.058 71.824 191.709 71.824H192.333V73.968H190.301V80H188.173Z" fill="white"/>
</svg>
