<svg width="137" height="75" viewBox="0 0 137 75" fill="none" xmlns="http://www.w3.org/2000/svg">
<path d="M30.2851 4.65918V13.9775L25.626 16.3071L18.6372 9.31836L9.31885 18.6367L16.3076 25.6255L13.978 30.2847H4.65967V44.2622H13.978L16.3076 48.9214L9.31885 55.9101L18.6372 65.2285L25.626 58.2397L30.2851 60.5693V69.8877H44.2627V60.5693L48.9219 58.2397L55.9106 65.2285L65.229 55.9101L58.2402 48.9214L60.5698 44.2622H69.8882V30.2847H60.5698L58.2402 25.6255L65.229 18.6367L55.9106 9.31836L48.9219 16.3071L44.2627 13.9775V4.65918H30.2851Z" stroke="#212121" stroke-width="2.23641" stroke-linecap="round" stroke-linejoin="round"/>
<rect width="119.275" height="29.8186" transform="translate(16.8049 22.3643)" fill="white"/>
<path d="M29.2143 43.5063H31.2182C31.568 43.1246 31.8145 42.7429 31.9577 42.3612C32.1167 41.9636 32.1962 41.3832 32.1962 40.6198V29.5749H35.4643V39.4271C35.4643 40.2381 35.4405 40.8743 35.3928 41.3355C35.361 41.7807 35.2656 42.3294 35.1065 42.9814C34.8362 44.1424 34.0887 45.2397 32.8642 46.2734H27.5683C26.3438 45.2715 25.5963 44.1742 25.326 42.9814C25.0874 42.0113 24.9681 40.8265 24.9681 39.4271V29.5749H28.2363V40.6198C28.2363 41.3832 28.3078 41.9636 28.451 42.3612C28.61 42.7429 28.8645 43.1246 29.2143 43.5063ZM45.0867 46.2734L40.6258 37.0416L40.5065 37.0893L40.6496 39.9042V46.2734H37.6439V29.5749H40.0533L44.4426 39.1646L44.5619 39.1169L44.2995 36.1828V29.5749H47.3052V46.2734H45.0867ZM49.5947 46.2734V29.5749H52.8628V46.2734H49.5947Z" fill="#FF1F02"/>
<path d="M62.9391 29.5749C64.0524 30.4814 64.8794 31.698 65.4201 33.2248C65.9608 34.7515 66.2311 36.3259 66.2311 37.948C66.2311 39.5543 65.9687 41.081 65.4439 42.5282C64.9191 43.9754 64.0842 45.2238 62.9391 46.2734H62.1519L62.8914 48.9691H59.838L59.0985 46.2734H58.025C56.88 45.2238 56.0451 43.9754 55.5202 42.5282C54.9954 41.081 54.733 39.5543 54.733 37.948C54.733 36.3259 55.0034 34.7515 55.5441 33.2248C56.0848 31.698 56.9118 30.4814 58.025 29.5749H62.9391ZM59.6233 43.5063H61.3409C61.7384 43.0451 62.0724 42.2976 62.3428 41.2639C62.629 40.2143 62.7722 39.109 62.7722 37.948C62.7722 36.7871 62.637 35.6977 62.3666 34.6799C62.0963 33.6462 61.7623 32.8987 61.3647 32.4375H59.6233C59.2257 32.8987 58.8838 33.6462 58.5975 34.6799C58.3272 35.6977 58.192 36.7871 58.192 37.948C58.192 39.109 58.3272 40.2143 58.5975 41.2639C58.8838 42.2976 59.2257 43.0451 59.6233 43.5063ZM72.2186 43.5063H74.2224C74.5722 43.1246 74.8188 42.7429 74.9619 42.3612C75.1209 41.9636 75.2004 41.3832 75.2004 40.6198V29.5749H78.4686V39.4271C78.4686 40.2381 78.4447 40.8743 78.397 41.3355C78.3652 41.7807 78.2698 42.3294 78.1107 42.9814C77.8404 44.1424 77.0929 45.2397 75.8684 46.2734H70.5726C69.348 45.2715 68.6005 44.1742 68.3302 42.9814C68.0916 42.0113 67.9724 40.8265 67.9724 39.4271V29.5749H71.2405V40.6198C71.2405 41.3832 71.3121 41.9636 71.4552 42.3612C71.6142 42.7429 71.8687 43.1246 72.2186 43.5063ZM87.6404 46.2734L87.1395 43.6255H83.3704L82.8694 46.2734H79.6252L82.8456 29.5749H87.7836L90.837 46.2734H87.6404ZM85.2072 32.6761L84.2769 38.2343L83.7521 41.073H86.7339L86.1853 38.2343L85.2549 32.6761H85.2072ZM92.2262 46.2734V29.5749H95.4943V43.5063H100.456V46.2734H92.2262ZM102.08 46.2734V29.5749H105.348V46.2734H102.08ZM110.344 32.4375H106.742V29.5749H117.19V32.4375H113.588V46.2734H110.344V32.4375ZM124.442 46.2734H120.959V40.7152L117.429 29.5749H120.673L122.152 34.6561L122.653 37.5902H122.748L123.249 34.6561L124.728 29.5749H127.973L124.442 40.7152V46.2734Z" fill="#212121"/>
<path d="M77.6176 53.2833H75.8165V51.852H81.0408V53.2833H79.2397V60.2012H77.6176V53.2833ZM81.2074 60.2012V54.1063H82.3405L82.6387 54.7503C82.9567 54.3209 83.3583 54.1063 83.8433 54.1063H84.3085V55.7045H82.7937V60.2012H81.2074ZM87.1038 60.2012H85.8514C85.5016 59.7559 85.263 59.3106 85.1358 58.8653C85.0086 58.42 84.9449 57.8634 84.9449 57.1955V54.1063H86.5313V57.3147C86.5313 58.0383 86.6744 58.583 86.9607 58.9488H88.0699V54.1063H89.6563V60.2012H88.4039L88.1892 59.7718C87.887 60.058 87.5252 60.2012 87.1038 60.2012ZM92.1558 57.1C92.1558 57.434 92.2075 57.7759 92.3109 58.1258C92.4142 58.4677 92.5574 58.742 92.7403 58.9488H94.5294V60.2012H91.9173C90.979 59.4537 90.5098 58.42 90.5098 57.1C90.5098 55.7801 91.0108 54.7821 92.0127 54.1063H94.5294V55.3586H92.7403C92.3506 55.7642 92.1558 56.3446 92.1558 57.1ZM95.3243 60.2012V51.852H96.9107V56.277H97.0777L98.1988 54.1063H99.7494L98.342 56.7661L99.7613 60.2012H98.1869L97.0896 57.5294H96.9107V60.2012H95.3243ZM102.325 60.2012V54.1063H103.458L103.756 54.7503C104.074 54.3209 104.476 54.1063 104.961 54.1063H105.426V55.7045H103.911V60.2012H102.325ZM108.644 55.3586H107.75C107.63 55.5018 107.531 55.7006 107.451 55.955C107.38 56.2095 107.344 56.456 107.344 56.6945H109.05C109.066 56.456 109.034 56.2095 108.954 55.955C108.875 55.6926 108.771 55.4938 108.644 55.3586ZM110.266 58.9488V60.2012H107.237C106.68 59.8274 106.287 59.3663 106.056 58.8176C105.833 58.261 105.722 57.7004 105.722 57.1358C105.722 55.8318 106.215 54.8219 107.201 54.1063H109.133C109.666 54.4959 110.028 54.9094 110.219 55.3467C110.409 55.784 110.505 56.2254 110.505 56.6707C110.505 57.1159 110.469 57.4976 110.398 57.8157H107.428C107.451 57.9986 107.519 58.2093 107.63 58.4478C107.75 58.6784 107.877 58.8454 108.012 58.9488H110.266ZM111.305 54.1063H112.581L112.76 54.5356C112.935 54.3766 113.098 54.2653 113.249 54.2017C113.408 54.1381 113.643 54.1063 113.953 54.1063H115.027C115.361 54.4323 115.623 54.8537 115.814 55.3706C116.005 55.8874 116.1 56.456 116.1 57.0762C116.1 58.4041 115.702 59.4458 114.907 60.2012H113.893C113.472 60.2012 113.138 60.0898 112.892 59.8672V61.9903H111.305V54.1063ZM112.892 58.9488H114.037C114.331 58.4478 114.478 57.8395 114.478 57.1239C114.478 56.4082 114.327 55.8198 114.025 55.3586H112.892V58.9488ZM119.829 57.4459H118.553C118.386 57.6527 118.302 57.9111 118.302 58.2212C118.302 58.5313 118.39 58.7739 118.565 58.9488H119.829V57.4459ZM117.265 54.1063H120.223C120.7 54.3925 121.014 54.7225 121.165 55.0962C121.316 55.462 121.391 55.963 121.391 56.5991V58.3882C121.391 59.0482 121.407 59.6525 121.439 60.2012H120.079L119.865 59.7718C119.555 60.058 119.117 60.2012 118.553 60.2012H117.801C117.125 59.7559 116.787 59.1158 116.787 58.2809C116.787 57.438 117.133 56.774 117.825 56.289H118.946C119.256 56.289 119.547 56.3844 119.817 56.5752V55.9789C119.817 55.6687 119.682 55.462 119.412 55.3586H117.265V54.1063ZM122.417 60.2012V54.1063H123.992V60.2012H122.417ZM122.417 51.852H123.992V53.4622H122.417V51.852ZM125.027 60.2012V54.1063H126.16L126.458 54.7503C126.776 54.3209 127.178 54.1063 127.663 54.1063H128.128V55.7045H126.613V60.2012H125.027Z" fill="#212121"/>
</svg>
