<svg width="42" height="30" viewBox="0 0 42 30" fill="none" xmlns="http://www.w3.org/2000/svg">
<g clip-path="url(#clip0_2462_6882)">
<path d="M41.0722 4.67917C40.8314 3.77476 40.3615 2.95024 39.7095 2.28771C39.0575 1.62519 38.246 1.14777 37.3559 0.903C34.0973 0 20.9824 0 20.9824 0C20.9824 0 7.86687 0.0273333 4.60824 0.930333C3.71813 1.17512 2.90666 1.65256 2.25464 2.31512C1.60262 2.97768 1.1328 3.80223 0.891968 4.70667C-0.0936908 10.5897 -0.476046 19.554 0.919033 25.2017C1.15989 26.1061 1.62972 26.9306 2.28174 27.5931C2.93376 28.2556 3.74522 28.7331 4.63531 28.9778C7.89394 29.8808 21.0092 29.8808 21.0092 29.8808C21.0092 29.8808 34.1242 29.8808 37.3827 28.9778C38.2728 28.7331 39.0843 28.2557 39.7363 27.5932C40.3884 26.9306 40.8582 26.1061 41.0991 25.2017C42.1387 19.3103 42.4591 10.3515 41.0722 4.67917Z" fill="#FF0000"/>
<path d="M16.8047 21.3431L27.6845 14.9401L16.8047 8.53711V21.3431Z" fill="white"/>
</g>
<defs>
<clipPath id="clip0_2462_6882">
<rect width="42" height="30" fill="white"/>
</clipPath>
</defs>
</svg>
